<svg width="150" height="150" viewBox="0 0 683 148" fill="none" xmlns="http://www.w3.org/2000/svg">
<path d="M90.7344 90.8008L96.1055 56.9141C96.6914 52.3568 96.8867 47.832 96.6914 43.3398C96.5612 38.7826 96.0078 34.4531 95.0312 30.3516C94.0547 26.25 92.6224 22.4414 90.7344 18.9258C88.8464 15.3451 86.4375 12.2201 83.5078 9.55078C80.5781 6.94661 77.0951 4.86328 73.0586 3.30078C69.0872 1.73828 64.4648 0.891927 59.1914 0.761719C54.1784 0.63151 49.556 1.15234 45.3242 2.32422C41.0924 3.43099 37.2188 5.02604 33.7031 7.10938C31.4896 8.54167 29.3737 10.1367 27.3555 11.8945C25.4023 13.6523 23.5794 15.5404 21.8867 17.5586C17.5898 22.832 14.1393 28.8867 11.5352 35.7227C8.99609 42.5586 7.20573 49.6224 6.16406 56.9141L0.890625 90.8984C0.5 94.0234 0.272135 97.1484 0.207031 100.273C0.141927 103.398 0.272135 106.426 0.597656 109.355C0.923177 112.871 1.54167 116.289 2.45312 119.609C3.42969 122.93 4.69922 126.022 6.26172 128.887C9.0612 134.16 13.0326 138.457 18.1758 141.777C23.319 145.098 29.8294 146.855 37.707 147.051C42.9805 147.181 47.8307 146.595 52.2578 145.293C56.6849 144.056 60.6888 142.266 64.2695 139.922C67.9805 137.513 71.3008 134.583 74.2305 131.133C77.1602 127.682 79.6992 123.874 81.8477 119.707C84.0612 115.41 85.8841 110.82 87.3164 105.938C88.8138 100.99 89.9531 95.944 90.7344 90.8008ZM56.9453 22.6367C60.6562 22.7669 63.4883 23.776 65.4414 25.6641C67.3945 27.5521 68.7943 29.8958 69.6406 32.6953C70.4219 35.4948 70.7799 38.4896 70.7148 41.6797C70.7148 44.8698 70.5521 47.8646 70.2266 50.6641L29.4062 78.2031C29.4714 77.8776 29.5365 77.487 29.6016 77.0312C29.6667 76.5755 29.8945 75.1432 30.2852 72.7344L33.5078 52.5195C33.9635 49.1992 34.6471 45.7487 35.5586 42.168C36.5352 38.5872 37.9349 35.2995 39.7578 32.3047C40.4089 31.263 41.125 30.2539 41.9062 29.2773C42.6875 28.3008 43.5339 27.4219 44.4453 26.6406C46.0729 25.3385 47.8958 24.3294 49.9141 23.6133C51.9974 22.832 54.3411 22.5065 56.9453 22.6367ZM39.8555 125.273C36.2096 125.143 33.4102 124.167 31.457 122.344C29.5039 120.521 28.1042 118.242 27.2578 115.508C26.4115 112.839 25.9557 109.941 25.8906 106.816C25.8906 103.691 26.0208 100.762 26.2812 98.0273L67.3945 70.3906C67.1341 71.6927 66.9388 72.7344 66.8086 73.5156C66.7435 74.2969 66.6133 75.306 66.418 76.543L63.4883 95.0977C63.0977 97.5065 62.6094 100.013 62.0234 102.617C61.4375 105.156 60.6888 107.63 59.7773 110.039C58.931 112.318 57.7917 114.499 56.3594 116.582C54.9922 118.665 53.3971 120.456 51.5742 121.953C49.9466 123.255 48.1888 124.167 46.3008 124.688C44.4128 125.208 42.2643 125.404 39.8555 125.273ZM167.102 72.2461L150.207 39.3359H123.156L148.84 90.1172L103.918 145H133.996L162.707 110.527L180.871 145H207.922L181.262 92.2656L224.621 39.3359H194.738L167.102 72.2461Z" fill="#979797"/>
<path d="M262.512 92.8516L284.387 92.9492C291.223 92.9492 297.831 91.9727 304.211 90.0195C310.656 88.0013 316.418 85.0716 321.496 81.2305C326.574 77.4544 330.741 72.7995 333.996 67.2656C337.316 61.6667 339.27 55.2214 339.855 47.9297C340.441 41.1589 339.758 35.0391 337.805 29.5703C335.917 24.1016 333.052 19.4141 329.211 15.5078C325.305 11.6016 320.617 8.57422 315.148 6.42578C309.68 4.27734 303.658 3.10547 297.082 2.91016L251.281 2.8125L226.672 145H253.43L262.512 92.8516ZM266.32 70.5859L274.23 25.0781L296.008 25.1758C299.263 25.306 302.062 26.0221 304.406 27.3242C306.75 28.5612 308.638 30.1888 310.07 32.207C311.438 34.2904 312.349 36.6992 312.805 39.4336C313.26 42.1029 313.293 44.9674 312.902 48.0273C312.447 51.543 311.405 54.7005 309.777 57.5C308.215 60.2995 306.229 62.6758 303.82 64.6289C301.411 66.582 298.677 68.112 295.617 69.2188C292.557 70.2604 289.302 70.8138 285.852 70.8789L266.32 70.5859ZM408.508 145H434.777L434.875 143.242C433.508 139.466 432.954 135.592 433.215 131.621C433.54 127.585 433.996 123.646 434.582 119.805L441.906 74.3945C442.492 68.3398 441.841 63.0339 439.953 58.4766C438.13 53.9193 435.428 50.0781 431.848 46.9531C428.202 43.8932 423.905 41.5495 418.957 39.9219C414.009 38.2943 408.768 37.4154 403.234 37.2852C397.961 37.2201 392.622 37.8385 387.219 39.1406C381.88 40.3776 376.997 42.3633 372.57 45.0977C368.143 47.8971 364.465 51.4453 361.535 55.7422C358.605 59.974 356.945 65.0195 356.555 70.8789L383.02 70.6836C383.475 68.5352 384.159 66.6471 385.07 65.0195C386.047 63.3268 387.251 61.9596 388.684 60.918C390.181 59.7461 391.906 58.8997 393.859 58.3789C395.878 57.793 398.059 57.5326 400.402 57.5977C402.941 57.6628 405.22 58.0859 407.238 58.8672C409.257 59.5833 410.949 60.625 412.316 61.9922C413.618 63.4245 414.53 65.1497 415.051 67.168C415.637 69.1862 415.734 71.4648 415.344 74.0039L414.074 80.5469L398.84 80.3516C394.868 80.3516 390.832 80.5794 386.73 81.0352C382.694 81.4909 378.755 82.2721 374.914 83.3789C371.073 84.4857 367.46 85.9505 364.074 87.7734C360.689 89.5312 357.694 91.7448 355.09 94.4141C352.486 97.0833 350.37 100.208 348.742 103.789C347.18 107.37 346.301 111.504 346.105 116.191C345.91 120.879 346.626 125.111 348.254 128.887C349.882 132.663 352.193 135.853 355.188 138.457C358.117 141.126 361.568 143.21 365.539 144.707C369.576 146.139 373.807 146.888 378.234 146.953C382.01 147.018 385.591 146.595 388.977 145.684C392.362 144.837 395.552 143.568 398.547 141.875C400.109 140.964 401.639 139.954 403.137 138.848C404.634 137.676 406.099 136.439 407.531 135.137C407.466 136.829 407.466 138.49 407.531 140.117C407.661 141.68 407.987 143.307 408.508 145ZM385.168 126.055C383.28 126.055 381.522 125.794 379.895 125.273C378.332 124.753 376.997 124.004 375.891 123.027C374.784 122.051 373.97 120.814 373.449 119.316C372.928 117.819 372.798 116.061 373.059 114.043C373.319 112.285 373.742 110.69 374.328 109.258C374.914 107.826 375.63 106.556 376.477 105.449C377.518 104.082 378.755 102.943 380.188 102.031C381.62 101.055 383.085 100.176 384.582 99.3945C386.926 98.418 389.432 97.7018 392.102 97.2461C394.771 96.7904 397.408 96.5625 400.012 96.5625L412.023 96.6602L408.703 114.922C407.466 116.419 406.099 117.786 404.602 119.023C403.169 120.26 401.672 121.335 400.109 122.246C397.896 123.548 395.52 124.525 392.98 125.176C390.441 125.827 387.837 126.12 385.168 126.055ZM532.434 115.41C531.978 117.884 530.936 119.902 529.309 121.465C527.746 123.027 525.891 124.232 523.742 125.078C521.529 125.99 519.185 126.608 516.711 126.934C514.302 127.259 512.089 127.422 510.07 127.422C507.401 127.422 504.862 127.129 502.453 126.543C500.109 125.957 498.026 125.013 496.203 123.711C494.315 122.474 492.818 120.846 491.711 118.828C490.604 116.81 489.986 114.368 489.855 111.504L464.758 111.406C464.758 117.396 466.027 122.604 468.566 127.031C471.171 131.393 474.556 135.039 478.723 137.969C482.824 140.964 487.479 143.21 492.688 144.707C497.896 146.204 503.202 146.986 508.605 147.051C513.293 147.116 518.306 146.66 523.645 145.684C528.983 144.707 533.964 143.177 538.586 141.094C543.859 138.555 548.352 135.104 552.062 130.742C555.773 126.315 557.792 120.781 558.117 114.141C558.378 108.672 557.271 104.082 554.797 100.371C552.388 96.6602 549.263 93.6003 545.422 91.1914C543.859 90.2148 542.199 89.3359 540.441 88.5547C538.684 87.7734 536.893 87.0573 535.07 86.4062C532.401 85.4297 529.667 84.6159 526.867 83.9648C524.068 83.2487 521.366 82.6302 518.762 82.1094C517.069 81.7839 515.083 81.3932 512.805 80.9375C510.526 80.4818 508.41 79.7982 506.457 78.8867C504.504 78.0404 502.909 76.8685 501.672 75.3711C500.435 73.8737 500.044 71.888 500.5 69.4141C500.891 67.0703 501.802 65.1172 503.234 63.5547C504.732 61.9271 506.49 60.625 508.508 59.6484C510.526 58.737 512.674 58.0859 514.953 57.6953C517.232 57.3047 519.38 57.1094 521.398 57.1094C523.807 57.1094 526.053 57.4023 528.137 57.9883C530.285 58.5091 532.141 59.3229 533.703 60.4297C535.266 61.6016 536.47 63.099 537.316 64.9219C538.228 66.7448 538.651 68.9258 538.586 71.4648L564.953 71.5625C564.953 65.638 563.716 60.5599 561.242 56.3281C558.833 52.0312 555.643 48.4831 551.672 45.6836C547.635 42.8841 543.078 40.8333 538 39.5312C532.922 38.1641 527.714 37.4479 522.375 37.3828C517.883 37.3177 513.195 37.806 508.312 38.8477C503.495 39.8242 499.1 41.2565 495.129 43.1445C489.53 45.7487 484.81 49.362 480.969 53.9844C477.193 58.6068 475.207 64.2057 475.012 70.7812C474.816 75.7943 475.858 80.0911 478.137 83.6719C480.415 87.2526 483.378 90.2474 487.023 92.6562C490.083 94.7396 493.208 96.4648 496.398 97.832C499.589 99.1341 503.202 100.306 507.238 101.348C509.322 101.868 511.535 102.422 513.879 103.008C516.288 103.529 518.859 104.082 521.594 104.668C522.961 104.993 524.328 105.449 525.695 106.035C527.062 106.621 528.234 107.272 529.211 107.988C530.383 108.9 531.294 109.974 531.945 111.211C532.596 112.383 532.759 113.783 532.434 115.41ZM649.816 115.41C649.361 117.884 648.319 119.902 646.691 121.465C645.129 123.027 643.273 124.232 641.125 125.078C638.911 125.99 636.568 126.608 634.094 126.934C631.685 127.259 629.471 127.422 627.453 127.422C624.784 127.422 622.245 127.129 619.836 126.543C617.492 125.957 615.409 125.013 613.586 123.711C611.698 122.474 610.201 120.846 609.094 118.828C607.987 116.81 607.368 114.368 607.238 111.504L582.141 111.406C582.141 117.396 583.41 122.604 585.949 127.031C588.553 131.393 591.939 135.039 596.105 137.969C600.207 140.964 604.862 143.21 610.07 144.707C615.279 146.204 620.585 146.986 625.988 147.051C630.676 147.116 635.689 146.66 641.027 145.684C646.366 144.707 651.346 143.177 655.969 141.094C661.242 138.555 665.734 135.104 669.445 130.742C673.156 126.315 675.174 120.781 675.5 114.141C675.76 108.672 674.654 104.082 672.18 100.371C669.771 96.6602 666.646 93.6003 662.805 91.1914C661.242 90.2148 659.582 89.3359 657.824 88.5547C656.066 87.7734 654.276 87.0573 652.453 86.4062C649.784 85.4297 647.049 84.6159 644.25 83.9648C641.451 83.2487 638.749 82.6302 636.145 82.1094C634.452 81.7839 632.466 81.3932 630.188 80.9375C627.909 80.4818 625.793 79.7982 623.84 78.8867C621.887 78.0404 620.292 76.8685 619.055 75.3711C617.818 73.8737 617.427 71.888 617.883 69.4141C618.273 67.0703 619.185 65.1172 620.617 63.5547C622.115 61.9271 623.872 60.625 625.891 59.6484C627.909 58.737 630.057 58.0859 632.336 57.6953C634.615 57.3047 636.763 57.1094 638.781 57.1094C641.19 57.1094 643.436 57.4023 645.52 57.9883C647.668 58.5091 649.523 59.3229 651.086 60.4297C652.648 61.6016 653.853 63.099 654.699 64.9219C655.611 66.7448 656.034 68.9258 655.969 71.4648L682.336 71.5625C682.336 65.638 681.099 60.5599 678.625 56.3281C676.216 52.0312 673.026 48.4831 669.055 45.6836C665.018 42.8841 660.461 40.8333 655.383 39.5312C650.305 38.1641 645.096 37.4479 639.758 37.3828C635.266 37.3177 630.578 37.806 625.695 38.8477C620.878 39.8242 616.483 41.2565 612.512 43.1445C606.913 45.7487 602.193 49.362 598.352 53.9844C594.576 58.6068 592.59 64.2057 592.395 70.7812C592.199 75.7943 593.241 80.0911 595.52 83.6719C597.798 87.2526 600.76 90.2474 604.406 92.6562C607.466 94.7396 610.591 96.4648 613.781 97.832C616.971 99.1341 620.585 100.306 624.621 101.348C626.704 101.868 628.918 102.422 631.262 103.008C633.671 103.529 636.242 104.082 638.977 104.668C640.344 104.993 641.711 105.449 643.078 106.035C644.445 106.621 645.617 107.272 646.594 107.988C647.766 108.9 648.677 109.974 649.328 111.211C649.979 112.383 650.142 113.783 649.816 115.41Z" fill="white"/>
</svg>
