<svg width="80" height="20" viewBox="0 0 335 327" fill="none" xmlns="http://www.w3.org/2000/svg">
<path fill-rule="evenodd" clip-rule="evenodd" d="M133.408 0H148.231V10.4314L148.231 10.4314V0H157.123H163.054H163.054H171.946H171.946H177.877H186.769V10.3215H186.769V0H201.592V14.823H196.724V14.8233H201.592V29.6463H196.766V29.6465H209.005V44.4681V44.4695V59.2911H196.851V59.2914H201.593H216.416H235.724L235.725 59.2911H231.241V44.4681H246.062V29.6465H260.885V39.0327H260.886V29.6465H275.709V44.0136L276.385 44.4681H290.532V59.2911H290.259L290.53 59.7161V59.2914H305.353V74.1144H296.122L296.122 74.1146H305.353V88.9376H290.532V103.759H275.709V96.8342L275.707 96.8348V103.761H275.709V118.584H275.707V133.408H305.354V125.995H320.177V133.408H320.177H320.177H335V148.231H320.177V148.231H335V163.054H320.177V163.054H335V177.876V177.877V192.699H320.177V192.7H320.177V200.11H305.354V192.7H305.353V207.522H290.532H290.53H275.709V192.7H275.709V207.522H275.707V207.522H275.709V222.345H275.707V230.138L275.709 230.139V222.344H290.532V237.167H290.53L290.53 237.167H305.353V251.99H296.622L296.622 251.99H305.353V266.813H290.789L290.532 267.172V281.637H275.709V281.533L275.591 281.639H275.709V296.462H260.886V285.453L260.885 285.453V296.462H246.062V290.792L236.991 281.637H231.241V275.834L231.239 275.832V281.637H216.416V266.814H222.303L222.303 266.813L216.416 266.814H209.005V281.637H197.485V281.639H209.005V296.462H197.527V296.462H201.592V311.283V311.285V326.106H186.769V315.677H186.769V326.106H177.877H171.946H171.946H163.054H163.054H157.123H148.231V315.787H148.231V326.106H133.408V311.285V311.283V296.462H138.235V296.462H125.995V281.639H138.192L138.192 281.637H125.995V266.814H118.584V281.637H103.761V266.814H103.759V281.637H88.9362V281.486L88.8233 281.639H88.9376V296.462H74.1146V285.406L74.1144 285.406V296.462H59.2914V281.639H59.9L59.2911 281.064V281.637H44.4681V267.089L44.1763 266.813H29.6465V251.99H38.558L38.5581 251.99H29.6465V237.167H44.4518L44.4681 237.144V222.344H59.2911V228.107L59.2914 228.107V222.345V207.522V207.522V192.7H59.2911V207.522H44.4695H44.4681H29.6465V192.7H29.6463V200.11H14.8233V192.7V185.287V140.818V133.408V125.995H29.6463V133.408H59.2914V118.584V103.761V102.3L59.2911 102.3V103.759H44.4681V88.9384H40.0223V88.9376H29.6465V74.1146H35.4471L35.4474 74.1144H29.6465V59.2914H43.6812L44.4681 58.6255V44.4681H59.2911V44.6529L59.4813 44.4695H59.2914V29.6465H74.1144V35.8004L74.1146 35.8001V29.6465H88.9376V41.6473L91.7326 44.4681H103.759V56.6054L103.761 56.6074V44.4681H118.584V59.2911H112.078L112.079 59.2914H118.584H133.407H137.558V59.2911H125.995V44.4695V44.4681V29.6465H137.474V29.6463H133.408V14.8233H137.432V14.823H133.408V0ZM246.54 44.4695L246.064 45.1224V44.4695H246.54ZM290.036 88.9362L290.53 88.1947V88.9362H290.036ZM59.2911 118.584H44.4695H44.4681H29.6465V133.407H44.4681H44.4695H59.2911V118.584ZM14.823 133.408H0V148.231H14.823V133.408ZM14.823 148.231H0V163.054H14.823V148.231ZM0 163.054H14.823V177.876V177.877V192.699H0V177.877V177.876V163.054ZM290.53 118.584H275.709V133.407H290.53H290.532H305.353V118.584H290.532H290.53ZM216.416 44.4681H231.239V59.2911H216.416V44.4681Z" fill="white"/>
</svg>
